<svg width="200" height="200" viewBox="0 0 200 200" fill="none" xmlns="http://www.w3.org/2000/svg">
  <!-- Gold Coast Builders - Construction and building -->
  <rect x="35" y="35" width="130" height="130" rx="8" fill="#E67E22" opacity="0.1"/>

  <!-- House structure -->
  <path d="M100 50 L150 85 L150 140 L50 140 L50 85 Z" fill="#D35400" opacity="0.2"/>
  <path d="M100 50 L150 85 L150 140 L50 140 L50 85 Z" stroke="#D35400" stroke-width="4" stroke-linejoin="round" fill="none"/>

  <!-- Roof -->
  <path d="M100 50 L150 85 L145 85 L100 57 L55 85 L50 85 Z" fill="#E67E22"/>

  <!-- Door and window details -->
  <rect x="85" y="110" width="30" height="30" fill="#7F8C8D" opacity="0.6"/>
  <rect x="60" y="95" width="20" height="20" fill="#3498DB" opacity="0.5"/>
  <rect x="120" y="95" width="20" height="20" fill="#3498DB" opacity="0.5"/>
  <line x1="70" y1="95" x2="70" y2="115" stroke="#2C3E50" stroke-width="1.5"/>
  <line x1="60" y1="105" x2="80" y2="105" stroke="#2C3E50" stroke-width="1.5"/>
  <line x1="130" y1="95" x2="130" y2="115" stroke="#2C3E50" stroke-width="1.5"/>
  <line x1="120" y1="105" x2="140" y2="105" stroke="#2C3E50" stroke-width="1.5"/>

  <!-- Border frame -->
  <rect x="35" y="35" width="130" height="130" rx="8" stroke="#D35400" stroke-width="3" fill="none"/>
</svg>