<svg width="1200" height="700" viewBox="0 0 1200 700" xmlns="http://www.w3.org/2000/svg">
  <!-- Background -->
  <rect width="1200" height="700" fill="#f8fafc"/>

  <!-- Dashboard Container -->
  <rect x="50" y="30" width="1100" height="640" rx="16" fill="#ffffff" stroke="#e2e8f0" stroke-width="2"/>

  <!-- Header Bar -->
  <rect x="50" y="30" width="1100" height="60" rx="16" fill="#1e293b"/>
  <rect x="50" y="74" width="1100" height="16" fill="#1e293b"/>

  <!-- Logo -->
  <text x="80" y="68" font-family="system-ui, sans-serif" font-size="20" font-weight="bold" fill="#ffffff">Synthex</text>
  <text x="155" y="68" font-family="system-ui, sans-serif" font-size="20" font-weight="bold" fill="#ff6b35">.social</text>

  <!-- Nav Items -->
  <text x="300" y="68" font-family="system-ui, sans-serif" font-size="14" fill="#94a3b8">Dashboard</text>
  <text x="400" y="68" font-family="system-ui, sans-serif" font-size="14" fill="#94a3b8">Content</text>
  <text x="480" y="68" font-family="system-ui, sans-serif" font-size="14" fill="#94a3b8">Analytics</text>
  <text x="570" y="68" font-family="system-ui, sans-serif" font-size="14" fill="#94a3b8">Settings</text>

  <!-- User Avatar -->
  <circle cx="1100" cy="60" r="18" fill="#ff6b35"/>
  <text x="1094" y="66" font-family="system-ui, sans-serif" font-size="14" font-weight="bold" fill="#ffffff">JD</text>

  <!-- Sidebar -->
  <rect x="50" y="90" width="200" height="580" fill="#f8fafc"/>
  <line x1="250" y1="90" x2="250" y2="670" stroke="#e2e8f0" stroke-width="1"/>

  <!-- Sidebar Items -->
  <rect x="60" y="110" width="180" height="40" rx="8" fill="#ff6b35" opacity="0.1"/>
  <circle cx="85" cy="130" r="8" fill="#ff6b35"/>
  <text x="105" y="135" font-family="system-ui, sans-serif" font-size="14" font-weight="500" fill="#ff6b35">Overview</text>

  <circle cx="85" cy="180" r="8" fill="#94a3b8"/>
  <text x="105" y="185" font-family="system-ui, sans-serif" font-size="14" fill="#64748b">Content Calendar</text>

  <circle cx="85" cy="230" r="8" fill="#94a3b8"/>
  <text x="105" y="235" font-family="system-ui, sans-serif" font-size="14" fill="#64748b">AI Generator</text>

  <circle cx="85" cy="280" r="8" fill="#94a3b8"/>
  <text x="105" y="285" font-family="system-ui, sans-serif" font-size="14" fill="#64748b">Social Accounts</text>

  <circle cx="85" cy="330" r="8" fill="#94a3b8"/>
  <text x="105" y="335" font-family="system-ui, sans-serif" font-size="14" fill="#64748b">Analytics</text>

  <!-- Main Content Area -->
  <!-- Welcome Card -->
  <rect x="270" y="110" width="500" height="120" rx="12" fill="#fff7ed" stroke="#fed7aa" stroke-width="1"/>
  <text x="295" y="145" font-family="system-ui, sans-serif" font-size="18" font-weight="600" fill="#1e293b">Welcome back, John!</text>
  <text x="295" y="175" font-family="system-ui, sans-serif" font-size="14" fill="#64748b">Your AI has scheduled 12 posts for this week</text>
  <rect x="295" y="195" width="140" height="28" rx="6" fill="#ff6b35"/>
  <text x="315" y="214" font-family="system-ui, sans-serif" font-size="12" font-weight="500" fill="#ffffff">View Schedule</text>

  <!-- Stats Cards Row -->
  <!-- Card 1 -->
  <rect x="270" y="250" width="160" height="100" rx="12" fill="#ffffff" stroke="#e2e8f0" stroke-width="1"/>
  <text x="290" y="280" font-family="system-ui, sans-serif" font-size="12" fill="#64748b">Posts This Week</text>
  <text x="290" y="315" font-family="system-ui, sans-serif" font-size="32" font-weight="bold" fill="#1e293b">24</text>
  <text x="330" y="315" font-family="system-ui, sans-serif" font-size="12" fill="#22c55e">+12%</text>

  <!-- Card 2 -->
  <rect x="445" y="250" width="160" height="100" rx="12" fill="#ffffff" stroke="#e2e8f0" stroke-width="1"/>
  <text x="465" y="280" font-family="system-ui, sans-serif" font-size="12" fill="#64748b">Engagement</text>
  <text x="465" y="315" font-family="system-ui, sans-serif" font-size="32" font-weight="bold" fill="#1e293b">4.2K</text>
  <text x="530" y="315" font-family="system-ui, sans-serif" font-size="12" fill="#22c55e">+8%</text>

  <!-- Card 3 -->
  <rect x="620" y="250" width="160" height="100" rx="12" fill="#ffffff" stroke="#e2e8f0" stroke-width="1"/>
  <text x="640" y="280" font-family="system-ui, sans-serif" font-size="12" fill="#64748b">New Followers</text>
  <text x="640" y="315" font-family="system-ui, sans-serif" font-size="32" font-weight="bold" fill="#1e293b">156</text>
  <text x="700" y="315" font-family="system-ui, sans-serif" font-size="12" fill="#22c55e">+23%</text>

  <!-- Right Panel - Quick Stats -->
  <rect x="800" y="110" width="330" height="240" rx="12" fill="#ffffff" stroke="#e2e8f0" stroke-width="1"/>
  <text x="825" y="145" font-family="system-ui, sans-serif" font-size="16" font-weight="600" fill="#1e293b">AI Content Queue</text>

  <!-- Queue Items -->
  <rect x="820" y="165" width="290" height="50" rx="8" fill="#f8fafc"/>
  <circle cx="845" cy="190" r="12" fill="#3b82f6"/>
  <text x="865" y="185" font-family="system-ui, sans-serif" font-size="13" fill="#1e293b">Facebook Post</text>
  <text x="865" y="202" font-family="system-ui, sans-serif" font-size="11" fill="#64748b">Scheduled for 2:00 PM</text>
  <text x="1050" y="193" font-family="system-ui, sans-serif" font-size="11" fill="#22c55e">Ready</text>

  <rect x="820" y="225" width="290" height="50" rx="8" fill="#f8fafc"/>
  <circle cx="845" cy="250" r="12" fill="#e1306c"/>
  <text x="865" y="245" font-family="system-ui, sans-serif" font-size="13" fill="#1e293b">Instagram Story</text>
  <text x="865" y="262" font-family="system-ui, sans-serif" font-size="11" fill="#64748b">Scheduled for 4:30 PM</text>
  <text x="1050" y="253" font-family="system-ui, sans-serif" font-size="11" fill="#22c55e">Ready</text>

  <rect x="820" y="285" width="290" height="50" rx="8" fill="#f8fafc"/>
  <circle cx="845" cy="310" r="12" fill="#0077b5"/>
  <text x="865" y="305" font-family="system-ui, sans-serif" font-size="13" fill="#1e293b">LinkedIn Article</text>
  <text x="865" y="322" font-family="system-ui, sans-serif" font-size="11" fill="#64748b">Scheduled for Tomorrow</text>
  <text x="1040" y="313" font-family="system-ui, sans-serif" font-size="11" fill="#f59e0b">Pending</text>

  <!-- Analytics Chart Area -->
  <rect x="270" y="370" width="510" height="280" rx="12" fill="#ffffff" stroke="#e2e8f0" stroke-width="1"/>
  <text x="295" y="405" font-family="system-ui, sans-serif" font-size="16" font-weight="600" fill="#1e293b">Engagement Overview</text>
  <text x="295" y="425" font-family="system-ui, sans-serif" font-size="12" fill="#64748b">Last 7 days</text>

  <!-- Simple Bar Chart -->
  <rect x="310" y="500" width="40" height="100" rx="4" fill="#ff6b35" opacity="0.3"/>
  <rect x="310" y="550" width="40" height="50" rx="4" fill="#ff6b35"/>
  <text x="320" y="620" font-family="system-ui, sans-serif" font-size="10" fill="#64748b">Mon</text>

  <rect x="370" y="480" width="40" height="120" rx="4" fill="#ff6b35" opacity="0.3"/>
  <rect x="370" y="520" width="40" height="80" rx="4" fill="#ff6b35"/>
  <text x="382" y="620" font-family="system-ui, sans-serif" font-size="10" fill="#64748b">Tue</text>

  <rect x="430" y="460" width="40" height="140" rx="4" fill="#ff6b35" opacity="0.3"/>
  <rect x="430" y="490" width="40" height="110" rx="4" fill="#ff6b35"/>
  <text x="440" y="620" font-family="system-ui, sans-serif" font-size="10" fill="#64748b">Wed</text>

  <rect x="490" y="440" width="40" height="160" rx="4" fill="#ff6b35" opacity="0.3"/>
  <rect x="490" y="470" width="40" height="130" rx="4" fill="#ff6b35"/>
  <text x="502" y="620" font-family="system-ui, sans-serif" font-size="10" fill="#64748b">Thu</text>

  <rect x="550" y="470" width="40" height="130" rx="4" fill="#ff6b35" opacity="0.3"/>
  <rect x="550" y="510" width="40" height="90" rx="4" fill="#ff6b35"/>
  <text x="565" y="620" font-family="system-ui, sans-serif" font-size="10" fill="#64748b">Fri</text>

  <rect x="610" y="500" width="40" height="100" rx="4" fill="#ff6b35" opacity="0.3"/>
  <rect x="610" y="540" width="40" height="60" rx="4" fill="#ff6b35"/>
  <text x="623" y="620" font-family="system-ui, sans-serif" font-size="10" fill="#64748b">Sat</text>

  <rect x="670" y="510" width="40" height="90" rx="4" fill="#ff6b35" opacity="0.3"/>
  <rect x="670" y="555" width="40" height="45" rx="4" fill="#ff6b35"/>
  <text x="680" y="620" font-family="system-ui, sans-serif" font-size="10" fill="#64748b">Sun</text>

  <!-- Recent Activity Panel -->
  <rect x="800" y="370" width="330" height="280" rx="12" fill="#ffffff" stroke="#e2e8f0" stroke-width="1"/>
  <text x="825" y="405" font-family="system-ui, sans-serif" font-size="16" font-weight="600" fill="#1e293b">Recent Activity</text>

  <!-- Activity Items -->
  <circle cx="835" cy="450" r="6" fill="#22c55e"/>
  <text x="855" y="445" font-family="system-ui, sans-serif" font-size="12" fill="#1e293b">Post published to Facebook</text>
  <text x="855" y="462" font-family="system-ui, sans-serif" font-size="10" fill="#64748b">2 hours ago</text>

  <circle cx="835" cy="510" r="6" fill="#22c55e"/>
  <text x="855" y="505" font-family="system-ui, sans-serif" font-size="12" fill="#1e293b">AI generated 5 new posts</text>
  <text x="855" y="522" font-family="system-ui, sans-serif" font-size="10" fill="#64748b">4 hours ago</text>

  <circle cx="835" cy="570" r="6" fill="#3b82f6"/>
  <text x="855" y="565" font-family="system-ui, sans-serif" font-size="12" fill="#1e293b">New follower milestone: 1,000</text>
  <text x="855" y="582" font-family="system-ui, sans-serif" font-size="10" fill="#64748b">Yesterday</text>

  <circle cx="835" cy="630" r="6" fill="#f59e0b"/>
  <text x="855" y="625" font-family="system-ui, sans-serif" font-size="12" fill="#1e293b">Weekly report ready</text>
  <text x="855" y="642" font-family="system-ui, sans-serif" font-size="10" fill="#64748b">2 days ago</text>
</svg>
